<svg xmlns="http://www.w3.org/2000/svg" xmlns:xlink="http://www.w3.org/1999/xlink" version="1.1" x="0px" y="0px" viewBox="0 0 100 125" enable-background="new 0 0 100 100" xml:space="preserve"><g><path d="M62,49.6c0-6.5-5.3-11.8-11.8-11.8s-11.8,5.3-11.8,11.8c0,0.3,0,0.6,0,0.9c0,0.1,0,0.1,0,0.2c0.5,6.1,5.6,10.8,11.8,10.8   S61.5,56.7,62,50.6c0-0.1,0-0.1,0-0.2C62,50.2,62,49.9,62,49.6z M50.2,57.8c-3.8,0-7.1-2.7-7.9-6.3c0-0.1-0.1-0.3-0.1-0.4   c0,0,0,0,0,0c0-0.1,0-0.3-0.1-0.4c0,0,0,0,0-0.1c0-0.1,0-0.2,0-0.4c0,0,0-0.1,0-0.1c0-0.2,0-0.3,0-0.5c0-4.5,3.6-8.1,8.1-8.1   s8.1,3.6,8.1,8.1c0,0.2,0,0.3,0,0.5c0,0,0,0.1,0,0.1c0,0.1,0,0.2,0,0.4c0,0,0,0,0,0.1c0,0.1,0,0.3-0.1,0.4c0,0,0,0,0,0   c0,0.1-0.1,0.3-0.1,0.4C57.3,55.1,54,57.8,50.2,57.8z"/><path d="M93.7,47.8c-1-23.1-20.1-41.7-43.5-41.7S7.7,24.6,6.7,47.8h0v1.9v1.9h0c1,23.1,20.1,41.7,43.5,41.7c0,0,0,0,0,0   c11.6,0,22.6-4.5,30.8-12.8c7.8-7.8,12.3-18,12.7-28.9h0v-1.9L93.7,47.8L93.7,47.8z M78.3,77.8c-7.5,7.5-17.5,11.7-28.2,11.7   c-21.3,0-38.8-16.9-39.8-38h26.2c-0.1-0.6-0.1-1.2-0.1-1.9c0-7.6,6.1-13.7,13.7-13.7s13.7,6.1,13.7,13.7c0,0.6,0,1.3-0.1,1.9H90   C89.5,61.4,85.4,70.7,78.3,77.8z"/></g><text x="0" y="115" fill="#000000" font-size="5px" font-weight="bold" font-family="'Helvetica Neue', Helvetica, Arial-Unicode, Arial, Sans-serif">Created by Alex WaZa</text><text x="0" y="120" fill="#000000" font-size="5px" font-weight="bold" font-family="'Helvetica Neue', Helvetica, Arial-Unicode, Arial, Sans-serif">from the Noun Project</text></svg>